<?xml version="1.0" encoding="UTF-8" standalone="no"?>
<!-- Created with Inkscape (http://www.inkscape.org/) -->

<svg
   width="60mm"
   height="60mm"
   viewBox="0 0 60 60"
   version="1.1"
   id="svg1394"
   inkscape:version="1.1.1 (3bf5ae0d25, 2021-09-20)"
   sodipodi:docname="Assistant_EVOLUTION_trasp.svg"
   inkscape:export-filename="C:\Users\agnes\OneDrive - QCSNET SRL\QCSNETSRL\MARKETING\loghi icone new\evolution\Evolution_trasp.png"
   inkscape:export-xdpi="96"
   inkscape:export-ydpi="96"
   xmlns:inkscape="http://www.inkscape.org/namespaces/inkscape"
   xmlns:sodipodi="http://sodipodi.sourceforge.net/DTD/sodipodi-0.dtd"
   xmlns:xlink="http://www.w3.org/1999/xlink"
   xmlns="http://www.w3.org/2000/svg"
   xmlns:svg="http://www.w3.org/2000/svg">
  <sodipodi:namedview
     id="namedview1396"
     pagecolor="#ffffff"
     bordercolor="#666666"
     borderopacity="1.0"
     inkscape:pageshadow="2"
     inkscape:pageopacity="0.0"
     inkscape:pagecheckerboard="0"
     inkscape:document-units="mm"
     showgrid="false"
     inkscape:zoom="1.7401065"
     inkscape:cx="-58.617102"
     inkscape:cy="115.22283"
     inkscape:window-width="2560"
     inkscape:window-height="1017"
     inkscape:window-x="2488"
     inkscape:window-y="-8"
     inkscape:window-maximized="1"
     inkscape:current-layer="g2482"
     showguides="false"
     inkscape:guide-bbox="true"
     inkscape:snap-global="false">
    <sodipodi:guide
       position="51.156602,51.112979"
       orientation="0,-1"
       id="guide2901" />
    <sodipodi:guide
       position="29.900266,30.091047"
       orientation="0,-1"
       id="guide2903" />
    <sodipodi:guide
       position="-47.855089,24.854027"
       orientation="1,0"
       id="guide2905" />
    <sodipodi:guide
       position="-17.161793,77.677866"
       orientation="1,0"
       id="guide2907" />
    <sodipodi:guide
       position="29.900266,30.091047"
       orientation="1,0"
       id="guide4640" />
    <sodipodi:guide
       position="59.832455,59.784969"
       orientation="0.70694931,-0.70726422"
       id="guide31201" />
    <sodipodi:guide
       position="8.8679898,51.112979"
       orientation="1,0"
       id="guide1204" />
    <sodipodi:guide
       position="51.156602,51.419886"
       orientation="1,0"
       id="guide8446" />
    <sodipodi:guide
       position="0,59.973121"
       orientation="0.70679369,0.70741973"
       id="guide1167" />
    <sodipodi:guide
       position="8.8679898,8.8431958"
       orientation="0,-1"
       id="guide1947" />
  </sodipodi:namedview>
  <defs
     id="defs1391">
    <linearGradient
       inkscape:collect="always"
       id="linearGradient2920">
      <stop
         style="stop-color:#000000;stop-opacity:1;"
         offset="0"
         id="stop2916" />
      <stop
         style="stop-color:#800080;stop-opacity:1"
         offset="1"
         id="stop2918" />
    </linearGradient>
    <clipPath
       id="c">
      <path
         d="m 108.33,-72.388 c -10.053,14.951 -10.974,33.732 -6.2188,50.5 2.6933,9.4976 11.341,20.587 19.312,30.062 7.971,9.475 15.375,16.938 15.375,16.938 l 5.6562,-5.6562 c 0,0 -7.1733,-7.2455 -14.906,-16.438 -7.7327,-9.1925 -15.939,-20.709 -17.75,-27.094 -4.2528,-14.997 -3.2489,-31.297 5.1875,-43.844 l -6.6562,-4.4688 z"
         id="path2223" />
    </clipPath>
    <filter
       id="b"
       x="-0.022103693"
       y="-0.031480975"
       width="1.044208"
       height="1.0629621">
      <feGaussianBlur
         stdDeviation="2.56114"
         id="feGaussianBlur2226" />
    </filter>
    <filter
       id="a"
       x="-0.010115199"
       y="-0.014739481"
       width="1.0202307"
       height="1.029479">
      <feGaussianBlur
         stdDeviation=".64028"
         id="feGaussianBlur2229" />
    </filter>
    <filter
       id="n"
       x="-0.016567187"
       y="-0.069961213"
       width="1.0331343"
       height="1.1399224">
      <feGaussianBlur
         stdDeviation=".21654"
         id="feGaussianBlur2232" />
    </filter>
    <filter
       id="m"
       x="-0.04805493"
       y="-0.034897029"
       width="1.0995868"
       height="1.0655364">
      <feGaussianBlur
         stdDeviation="1.16159"
         id="feGaussianBlur2235" />
    </filter>
    <filter
       id="l"
       x="-0.012082721"
       y="-0.012517232"
       width="1.0245225"
       height="1.0247658">
      <feGaussianBlur
         stdDeviation=".97782"
         id="feGaussianBlur2238" />
    </filter>
    <filter
       id="k"
       x="-0.0047004498"
       y="-0.03885721"
       width="1.0183506"
       height="1.0778488">
      <feGaussianBlur
         stdDeviation=".27451"
         id="feGaussianBlur2241" />
    </filter>
    <filter
       id="j"
       x="-0.016023178"
       y="-0.046903081"
       width="1.0335408"
       height="1.0895081">
      <feGaussianBlur
         stdDeviation=".83809"
         id="feGaussianBlur2244" />
    </filter>
    <filter
       id="h"
       x="-0.097840279"
       y="-0.043266263"
       width="1.1956806"
       height="1.0865325">
      <feGaussianBlur
         stdDeviation="1.75771"
         id="feGaussianBlur2247" />
    </filter>
    <filter
       id="i"
       x="-0.036414392"
       y="-0.1018293"
       width="1.0710706"
       height="1.2036602" />
    <linearGradient
       id="g"
       x1="90.526001"
       x2="77.540001"
       y1="85.185997"
       y2="100.36"
       gradientUnits="userSpaceOnUse">
      <stop
         offset="0"
         id="stop2251" />
      <stop
         stop-color="#464646"
         offset="1"
         id="stop2253" />
    </linearGradient>
    <radialGradient
       id="f"
       cx="218.84"
       cy="333.37"
       r="157.83"
       gradientTransform="matrix(0.73682,3.1218e-4,-2.5193e-4,0.59462,57.679,109.48)"
       gradientUnits="userSpaceOnUse">
      <stop
         stop-color="#1a1a1a"
         offset="0"
         id="stop2256" />
      <stop
         stop-color="#222220"
         offset="1"
         id="stop2258" />
    </radialGradient>
    <radialGradient
       id="e"
       cx="333.45999"
       cy="212.39999"
       r="181.41"
       gradientTransform="matrix(1.4987,0.01912,-0.01653,1.2959,-162.85,-72.842)"
       gradientUnits="userSpaceOnUse">
      <stop
         stop-color="#346bfb"
         offset="0"
         id="stop2261" />
      <stop
         stop-color="#2d54cc"
         offset=".17996"
         id="stop2263" />
      <stop
         stop-color="#233fa2"
         offset=".39709"
         id="stop2265" />
      <stop
         stop-color="#1e2156"
         offset=".80044"
         id="stop2267" />
      <stop
         stop-color="#323642"
         offset="1"
         id="stop2269" />
    </radialGradient>
    <radialGradient
       id="d"
       cx="581.13"
       cy="81.509003"
       r="19.488001"
       gradientTransform="matrix(1,0,0,0.48969,0,44.312)"
       gradientUnits="userSpaceOnUse">
      <stop
         stop-color="#b1b2b1"
         offset="0"
         id="stop2272" />
      <stop
         stop-color="#8d8e8d"
         stop-opacity=".96947"
         offset="1"
         id="stop2274" />
    </radialGradient>
    <clipPath
       clipPathUnits="userSpaceOnUse"
       id="clipPath6587">
      <path
         style="display:inline;fill:#000000;fill-opacity:1;stroke-width:0.201157"
         d="m -91.570479,65.76214 c -6.710336,-4.522761 -9.371951,-6.788648 -9.793071,-8.337103 -0.48612,-1.787461 1.01602,-5.107514 3.448807,-7.622569 0.905145,-0.935739 2.865017,-3.322611 4.355301,-5.304168 1.490295,-1.98156 3.185901,-4.168582 3.768016,-4.860057 0.582133,-0.691468 1.113663,-1.460654 1.181182,-1.709299 0.219551,-0.808405 -0.229788,-3.14162 -1.25685,-6.526498 -1.064644,-3.508711 -1.870356,-5.430173 -2.58575,-6.166425 -0.239119,-0.246141 -0.928465,-0.760133 -1.531805,-1.142281 -1.746488,-1.106126 -1.826715,-1.364248 -1.808001,-5.816064 0.01746,-4.388655 0.287129,-5.732514 1.717585,-8.5906894 1.101122,-2.2001543 2.444419,-3.9448075 6.352858,-8.2510321 6.311185,-6.9535166 10.261073,-10.6093994 14.284814,-13.2215355 3.936349,-2.55542 6.530057,-3.377389 15.368389,-4.870407 3.969785,-0.670601 7.085293,-1.797213 9.66429,-3.494724 0.740791,-0.487567 2.412352,-1.880303 3.714578,-3.094887 2.4154,-2.252841 2.993909,-2.663093 4.082188,-2.894835 0.652616,-0.13895 5.780151,0.871239 6.583905,1.297134 0.795821,0.421685 2.183272,1.817708 3.244921,3.264952 0.575273,0.784186 1.413052,1.808636 1.861788,2.276555 l 0.815877,0.85076 -0.547565,1.070731 c -0.85878,1.679212 -0.749454,2.424249 0.597992,4.075204 0.951624,1.165984 1.334564,2.150251 1.182735,3.040003 -0.09424,0.552466 0.0076,1.0146976 0.418995,1.9048202 1.010665,2.1856867 0.812513,3.6561088 -0.726538,5.3916141 -1.196608,1.3493566 -2.003465,1.544733 -6.468314,1.5662604 -2.413971,0.011417 -2.928101,-0.048729 -4.451609,-0.5207998 -1.380781,-0.4280077 -2.038231,-0.5221913 -3.314412,-0.474635 -2.131949,0.079402 -2.346955,0.3755767 -1.18147,1.62742492 0.533569,0.57311479 0.888629,1.17587128 0.981643,1.66644878 0.08014,0.4227265 -0.01606,4.0111123 -0.21296,7.9742251 -0.405053,8.1357633 -0.393282,8.2627023 0.91694,9.9038263 1.324634,1.659188 3.726751,3.366573 9.760228,6.937405 7.567428,4.478686 9.357248,5.672883 11.754025,7.842519 3.706932,3.355647 4.712599,4.936408 5.247893,8.24892 0.383967,2.376061 0.161435,3.339094 -1.077764,4.664763 -0.849335,0.908605 -1.512904,1.146098 -3.316827,1.187167 -1.912735,0.04348 -2.777859,-0.296707 -4.310134,-1.695099 -1.070976,-0.977405 -1.146417,-1.553419 -0.283156,-2.162024 0.919686,-0.648388 0.846771,-1.539907 -0.202734,-2.478677 -0.445059,-0.398082 -0.90835,-0.723837 -1.029503,-0.723837 -0.121125,-1e-5 -1.508212,-1.293656 -3.082372,-2.874788 -3.069659,-3.083274 -4.257691,-3.876037 -6.120035,-4.08388 l -0.927195,-0.103458 0.637095,1.079138 c 1.257274,2.129636 3.408765,6.518809 4.110104,8.384886 0.393044,1.045819 0.955815,3.117448 1.250564,4.603615 0.294751,1.486176 0.81766,3.782973 1.161999,5.104022 0.493975,1.895152 0.644941,2.950845 0.715465,5.003935 0.11021,3.206737 -0.170611,5.472514 -0.734208,5.924865 -0.94724,0.760251 -6.526707,1.126109 -7.956894,0.521724 -0.611931,-0.258612 -0.852215,-0.535533 -1.263512,-1.45632 -0.613177,-1.372761 -0.64248,-2.105475 -0.103553,-2.588384 0.531987,-0.476663 0.512951,-0.625287 -0.180229,-1.406949 -0.444359,-0.501083 -0.617966,-0.94429 -0.723881,-1.847873 -0.127455,-1.08748 -0.06717,-1.374458 0.707972,-3.37039 1.007951,-2.595359 1.090459,-2.917457 0.919784,-3.590703 -0.121126,-0.477827 -5.422987,-7.152531 -9.374134,-11.801398 -0.935641,-1.100865 -1.914224,-2.416569 -2.174642,-2.923786 -0.991765,-1.931752 -1.634448,-2.399472 -5.61521,-4.086461 -2.804287,-1.188413 -3.341301,-1.952442 -2.669662,-3.798255 0.403646,-1.109282 0.37782,-2.13285 -0.117081,-4.643498 -0.234368,-1.189023 -0.447521,-2.83739 -0.473702,-3.663037 -0.06984,-2.205246 -0.09349,-2.401891 -0.288843,-2.401887 -0.09784,-1.7e-5 -0.711874,0.413164 -1.36458,0.918165 -2.565014,1.984508 -4.928172,2.759038 -8.464542,2.774284 -1.33426,0.0059 -2.876029,-0.05798 -3.426143,-0.141232 -0.966234,-0.146575 -0.904446,-0.09636 1.819455,1.479686 5.013505,2.900714 8.715711,5.50662 9.344737,6.577563 0.22652,0.385673 1.243121,1.737043 2.259102,3.003039 2.837947,3.536334 3.681783,5.640303 3.021076,7.532606 -0.182319,0.522078 -0.275836,1.9139 -0.287493,4.276688 -0.0093,1.926513 -0.133279,4.782309 -0.275074,6.346219 -0.296217,3.266977 -0.09622,5.744721 0.567663,7.033178 0.549558,1.06658 1.749986,1.891284 4.020976,2.762504 2.907808,1.115526 4.263496,2.342271 3.38563,3.06361 -0.505982,0.415772 -7.717682,0.755293 -9.168726,0.431663 -0.63424,-0.141465 -1.562544,-0.342286 -2.062884,-0.44622 -0.511133,-0.106302 -2.153243,-0.130551 -3.747969,-0.05565 -3.071992,0.144542 -3.553166,0.04176 -4.466434,-0.952156 -0.917773,-0.998982 -1.140918,-1.737365 -1.014624,-3.357404 0.06495,-0.83349 0.255749,-2.100895 0.423971,-2.816463 0.410207,-1.744813 0.408157,-5.488191 -0.0036,-7.062414 -0.174961,-0.668541 -0.531575,-1.632622 -0.792501,-2.142384 -1.139153,-2.225747 -3.442764,-4.350669 -4.930736,-4.54827 -0.768405,-0.102063 -0.780349,-0.09336 -0.924697,0.670002 -0.209193,1.106175 -0.992278,2.654824 -1.835928,3.630678 -0.409157,0.4733 -2.421837,1.963193 -4.604817,3.408773 -5.23998,3.469918 -6.663107,4.316968 -8.325482,4.955342 -0.778309,0.298905 -1.64171,0.757298 -1.918621,1.018685 -0.468034,0.441751 -0.499308,0.590293 -0.443902,2.107094 0.03271,0.897504 0.15598,1.810216 0.273796,2.028243 0.117854,0.218086 1.098453,1.261409 2.179101,2.318623 2.306111,2.256102 3.193198,3.738444 2.839072,4.744231 -0.221721,0.629732 -1.228424,1.365924 -1.918505,1.403 -0.222358,0.0122 -0.768207,0.07817 -1.212961,0.147252 -0.771612,0.11979 -0.947814,0.03189 -3.84829,-1.92323 z"
         id="path6589" />
    </clipPath>
    <linearGradient
       inkscape:collect="always"
       id="linearGradient28148">
      <stop
         style="stop-color:#532583;stop-opacity:1;"
         offset="0"
         id="stop28144" />
      <stop
         style="stop-color:#3f6f49;stop-opacity:1"
         offset="1"
         id="stop28146" />
    </linearGradient>
    <linearGradient
       inkscape:collect="always"
       xlink:href="#linearGradient2920"
       id="linearGradient2632"
       x1="-15.250475"
       y1="45.948994"
       x2="-55.791832"
       y2="-2.9947169"
       gradientUnits="userSpaceOnUse"
       gradientTransform="matrix(0.72384514,0,0,0.72384514,-4.206361,10.816135)" />
    <linearGradient
       inkscape:collect="always"
       xlink:href="#linearGradient2920"
       id="linearGradient2634"
       x1="39.741516"
       y1="127.28183"
       x2="151.9426"
       y2="-30.931324"
       gradientUnits="userSpaceOnUse" />
    <linearGradient
       inkscape:collect="always"
       xlink:href="#linearGradient2920"
       id="linearGradient2636"
       x1="-10.397943"
       y1="129.04218"
       x2="140.18192"
       y2="140.09459"
       gradientUnits="userSpaceOnUse" />
    <linearGradient
       inkscape:collect="always"
       xlink:href="#linearGradient2920"
       id="linearGradient2638"
       x1="47.801735"
       y1="183.59827"
       x2="32.926289"
       y2="44.269848"
       gradientUnits="userSpaceOnUse" />
    <linearGradient
       inkscape:collect="always"
       xlink:href="#linearGradient2920"
       id="linearGradient2640"
       x1="-15.245343"
       y1="44.076092"
       x2="-44.591007"
       y2="8.6484241"
       gradientUnits="userSpaceOnUse" />
    <linearGradient
       inkscape:collect="always"
       xlink:href="#linearGradient28148"
       id="linearGradient3282"
       gradientUnits="userSpaceOnUse"
       gradientTransform="matrix(1.6679073,0,0,1.6679073,9.6130307,8.9530777)"
       x1="41.901176"
       y1="71.938766"
       x2="88.345863"
       y2="72.191177" />
  </defs>
  <g
     inkscape:groupmode="layer"
     id="g2486"
     inkscape:label="trasformation 2 copia copia copia"
     style="display:inline"
     transform="translate(0.11171532,0.01843071)">
    <g
       inkscape:groupmode="layer"
       id="g2466"
       inkscape:label="trasformation copia"
       style="display:inline">
      <g
         aria-label="E"
         id="g2462"
         style="font-size:70.8517px;line-height:1.25;font-family:ROBOTO;-inkscape-font-specification:ROBOTO;stroke-width:1.10706"
         transform="translate(-0.56126601,3.4611404)" />
    </g>
    <g
       inkscape:groupmode="layer"
       id="g2482"
       inkscape:label="figure"
       style="display:inline">
      <rect
         style="font-variation-settings:normal;display:inline;opacity:1;vector-effect:none;fill:url(#linearGradient2632);fill-opacity:1;stroke:none;stroke-width:0.132813;stroke-linecap:butt;stroke-linejoin:miter;stroke-miterlimit:4;stroke-dasharray:none;stroke-dashoffset:0;stroke-opacity:1;-inkscape-stroke:none;stop-color:#000000;stop-opacity:1"
         id="rect2472"
         width="4.7283463"
         height="4.7283463"
         x="-15.23189"
         y="43.090279"
         transform="scale(-1,1)"
         inkscape:export-filename="C:\Users\agnes\OneDrive - QCSNET SRL\QCSNETSRL\MARKETING\loghi icone new\evolution\1.png"
         inkscape:export-xdpi="96"
         inkscape:export-ydpi="96" />
      <path
         sodipodi:type="star"
         style="font-variation-settings:normal;display:inline;opacity:1;vector-effect:none;fill:url(#linearGradient2634);fill-opacity:1;stroke:none;stroke-width:0.629586;stroke-linecap:butt;stroke-linejoin:miter;stroke-miterlimit:4;stroke-dasharray:none;stroke-dashoffset:0;stroke-opacity:1;-inkscape-stroke:none;stop-color:#000000;stop-opacity:1"
         id="path2474"
         inkscape:flatsided="true"
         sodipodi:sides="5"
         sodipodi:cx="29.698484"
         sodipodi:cy="110.66221"
         sodipodi:r1="21.82029"
         sodipodi:r2="18.896925"
         sodipodi:arg1="0.70511135"
         sodipodi:arg2="1.3334299"
         inkscape:rounded="-3.469447e-18"
         inkscape:randomized="0"
         d="M 46.315494,124.80434 21.383452,130.83608 7.9425018,108.98821 24.56758,89.453747 48.283394,99.228653 Z"
         transform="matrix(-0.05396407,-0.22620799,-0.22375188,0.06350223,45.869506,44.98326)"
         inkscape:export-filename="C:\Users\agnes\OneDrive - QCSNET SRL\QCSNETSRL\MARKETING\loghi icone new\evolution\1.png"
         inkscape:export-xdpi="96"
         inkscape:export-ydpi="96" />
      <path
         sodipodi:type="star"
         style="font-variation-settings:normal;display:inline;opacity:1;vector-effect:none;fill:url(#linearGradient2636);fill-opacity:1;stroke:none;stroke-width:0.491173;stroke-linecap:butt;stroke-linejoin:miter;stroke-miterlimit:4;stroke-dasharray:none;stroke-dashoffset:0;stroke-opacity:1;-inkscape-stroke:none;stop-color:#000000;stop-opacity:1"
         id="path2476"
         inkscape:flatsided="true"
         sodipodi:sides="7"
         sodipodi:cx="29.698484"
         sodipodi:cy="110.66221"
         sodipodi:r1="21.82029"
         sodipodi:r2="18.896925"
         sodipodi:arg1="0.70511135"
         sodipodi:arg2="1.1539103"
         inkscape:rounded="0"
         inkscape:randomized="0"
         d="M 46.315494,124.80434 29.002253,132.47139 12.213288,123.71567 8.5910328,105.13043 20.863119,90.710734 39.788415,91.3149 51.115788,106.48798 Z"
         transform="matrix(0.21124834,-0.22014756,-0.22294503,-0.20609782,46.211203,68.382321)"
         inkscape:export-filename="C:\Users\agnes\OneDrive - QCSNET SRL\QCSNETSRL\MARKETING\loghi icone new\evolution\1.png"
         inkscape:export-xdpi="96"
         inkscape:export-ydpi="96" />
      <path
         sodipodi:type="star"
         style="font-variation-settings:normal;display:inline;opacity:1;vector-effect:none;fill:url(#linearGradient2638);fill-opacity:1;stroke:none;stroke-width:0.430636;stroke-linecap:butt;stroke-linejoin:miter;stroke-miterlimit:4;stroke-dasharray:none;stroke-dashoffset:0;stroke-opacity:1;-inkscape-stroke:none;stop-color:#000000;stop-opacity:1"
         id="path2478"
         inkscape:flatsided="true"
         sodipodi:sides="10"
         sodipodi:cx="29.698484"
         sodipodi:cy="110.66221"
         sodipodi:r1="21.82029"
         sodipodi:r2="18.896925"
         sodipodi:arg1="0.70511135"
         sodipodi:arg2="1.0192706"
         inkscape:rounded="0"
         inkscape:randomized="0"
         d="M 46.315494,124.80434 34.829389,131.87067 21.383452,130.83608 11.113575,122.09576 7.9425018,108.98821 13.081474,96.520072 24.56758,89.453747 38.013517,90.488332 48.283394,99.228653 51.454467,112.3362 Z"
         transform="matrix(-0.28705603,-0.18143436,-0.17997461,0.27364542,62.010146,2.5081429)"
         inkscape:export-filename="C:\Users\agnes\OneDrive - QCSNET SRL\QCSNETSRL\MARKETING\loghi icone new\evolution\1.png"
         inkscape:export-xdpi="96"
         inkscape:export-ydpi="96" />
      <path
         style="font-variation-settings:normal;display:inline;opacity:1;vector-effect:none;fill:url(#linearGradient2640);fill-opacity:1;stroke:none;stroke-width:0.169426;stroke-linecap:butt;stroke-linejoin:miter;stroke-miterlimit:4;stroke-dasharray:none;stroke-dashoffset:0;stroke-opacity:1;-inkscape-stroke:none;stop-color:#000000;stop-opacity:1"
         id="path2480"
         sodipodi:type="arc"
         sodipodi:cx="-41.39259"
         sodipodi:cy="12.9968"
         sodipodi:rx="9.4002028"
         sodipodi:ry="9.4002028"
         sodipodi:start="0"
         sodipodi:end="6.2727657"
         sodipodi:open="true"
         sodipodi:arc-type="arc"
         d="m -31.992387,12.9968 a 9.4002028,9.4002028 0 0 1 -9.375716,9.400171 9.4002028,9.4002028 0 0 1 -9.424562,-9.351198 9.4002028,9.4002028 0 0 1 9.326616,-9.4488883 9.4002028,9.4002028 0 0 1 9.473152,9.3019713"
         transform="scale(-1,1)"
         inkscape:export-filename="C:\Users\agnes\OneDrive - QCSNET SRL\QCSNETSRL\MARKETING\loghi icone new\evolution\1.png"
         inkscape:export-xdpi="96"
         inkscape:export-ydpi="96" />
    </g>
    <g
       id="g3277"
       transform="matrix(0.76377359,-0.50245759,0.49973516,0.75963527,-201.19125,20.917845)"
       style="display:inline">
      <g
         id="g3275"
         transform="matrix(0.29597503,0,0,0.29597503,166.27473,107.49166)">
        <path
           style="fill:url(#linearGradient3282);fill-opacity:1;stroke:none;stroke-width:0.4413px;stroke-linecap:butt;stroke-linejoin:miter;stroke-opacity:1"
           d="m 133.75284,26.219518 c -61.326322,-2e-6 -111.041128,49.714805 -111.041128,111.041122 -3e-6,61.32633 49.714804,111.04114 111.041128,111.04114 56.78845,0 103.6202,-42.62968 110.34284,-97.78806 0.007,-6.0269 -9.61629,-7.70667 -11.66158,-2.27616 -5.27258,49.70551 -47.94564,87.82071 -98.82356,87.82071 -54.65225,0 -98.95666,-44.43548 -98.956667,-99.24943 0,-54.813952 44.304412,-99.249439 98.956667,-99.249441 21.88915,0 42.11835,7.128056 58.64733,19.110664 5.05951,3.994839 12.75577,-4.665717 7.23873,-9.162025 -18.51622,-13.553337 -40.97854,-21.28852 -65.74376,-21.28852 z"
           id="path3273"
           sodipodi:nodetypes="sssccsssccs" />
      </g>
    </g>
  </g>
  <style
     type="text/css"
     id="style19283"> .st0{fill:#191919;} </style>
</svg>
