<?xml version="1.0" standalone="no"?>
<!DOCTYPE svg PUBLIC "-//W3C//DTD SVG 20010904//EN"
 "http://www.w3.org/TR/2001/REC-SVG-20010904/DTD/svg10.dtd">
<svg version="1.0" xmlns="http://www.w3.org/2000/svg"
 width="1458.000000pt" height="1196.000000pt" viewBox="0 0 1458.000000 1196.000000"
 preserveAspectRatio="xMidYMid meet">

<g transform="translate(0.000000,1196.000000) scale(0.100000,-0.100000)"
fill="#000000" stroke="none">
<path d="M2750 9499 c-130 -25 -412 -185 -485 -273 -32 -39 -39 -43 -112 -55
-111 -18 -208 -66 -261 -127 l-42 -49 0 -546 c0 -301 3 -561 6 -578 9 -42 78
-111 141 -140 l49 -24 27 -186 c14 -102 61 -420 103 -706 41 -286 79 -551 84
-590 15 -130 44 -224 104 -342 37 -75 144 -217 199 -266 72 -65 208 -153 302
-198 181 -85 64 -79 1582 -81 741 -1 1305 -5 1253 -8 l-95 -7 120 2 c73 1 149
8 195 19 99 23 287 107 380 169 134 90 265 243 344 403 66 135 55 70 171 959
42 319 82 591 88 605 57 120 303 221 462 190 90 -18 215 -80 264 -131 32 -34
43 -57 55 -109 18 -78 79 -503 135 -945 61 -475 79 -534 216 -730 94 -134 197
-225 355 -312 63 -35 216 -86 305 -102 39 -7 510 -11 1375 -12 1310 -1 1315
-1 1424 21 351 69 625 289 761 607 31 74 39 121 151 910 65 458 121 827 125
822 4 -7 9 -5 12 5 3 8 24 24 45 35 22 11 54 32 71 47 62 52 61 43 61 639 l0
543 -23 50 c-43 92 -155 156 -308 177 -34 4 -53 14 -77 40 -45 48 -171 147
-212 167 -72 36 -168 70 -265 94 l-100 26 -1675 -7 c-921 -4 -1688 -9 -1705
-10 -43 -3 -211 -75 -306 -132 -45 -26 -115 -78 -155 -115 l-74 -68 -526 0
-526 0 -76 70 c-139 128 -255 192 -428 236 l-97 24 -1686 -1 c-927 -1 -1706
-5 -1731 -10z"/>
<path d="M4561 3674 c-102 -27 -195 -119 -222 -217 -15 -57 -6 -162 18 -219
25 -55 86 -119 145 -150 l43 -23 630 -5 c347 -3 631 -7 633 -8 1 -1 2 -217 2
-481 0 -534 0 -534 68 -604 75 -78 -47 -72 1412 -72 l1305 0 40 22 c47 25 85
64 111 113 18 33 19 69 22 528 1 270 4 493 5 494 1 1 286 5 632 8 l630 5 43
23 c59 31 120 95 145 150 24 57 33 162 18 219 -16 58 -68 132 -122 170 -95 68
117 63 -2834 62 -2303 0 -2677 -2 -2724 -15z m2480 -624 c18 -10 19 -25 19
-338 0 -242 -3 -331 -12 -340 -9 -9 -108 -12 -384 -12 -330 0 -373 2 -378 16
-3 9 -6 161 -6 338 0 237 3 325 12 334 16 16 719 17 749 2z m1247 -2 c9 -9 12
-97 12 -334 0 -177 -3 -329 -6 -338 -5 -14 -48 -16 -378 -16 -276 0 -375 3
-384 12 -9 9 -12 98 -12 340 0 301 1 328 18 337 26 16 734 15 750 -1z"/>
</g>
</svg>
