<?xml version="1.0" standalone="no"?>
<!DOCTYPE svg PUBLIC "-//W3C//DTD SVG 20010904//EN"
 "http://www.w3.org/TR/2001/REC-SVG-20010904/DTD/svg10.dtd">
<svg version="1.0" xmlns="http://www.w3.org/2000/svg"
 width="160.000000pt" height="36.000000pt" viewBox="0 0 160.000000 36.000000"
 preserveAspectRatio="xMidYMid meet">

<g transform="translate(0.000000,36.000000) scale(0.100000,-0.100000)"
fill="#000000" stroke="none">
<path d="M1240 280 c-14 -9 -7 -97 9 -113 4 -4 32 -7 61 -5 51 3 54 5 62 36 5
17 12 32 17 32 4 0 12 -15 17 -32 9 -31 12 -33 63 -36 30 -2 58 1 63 6 5 5 11
31 15 59 5 44 3 52 -13 56 -30 8 -280 6 -294 -3z"/>
<path d="M1305 100 c3 -5 12 -10 20 -10 7 0 15 -7 19 -15 3 -10 19 -15 46 -15
29 0 40 4 40 15 0 8 9 15 19 15 11 0 23 5 26 10 4 6 -27 10 -85 10 -58 0 -89
-4 -85 -10z m75 -20 c0 -5 -4 -10 -10 -10 -5 0 -10 5 -10 10 0 6 5 10 10 10 6
0 10 -4 10 -10z m40 0 c0 -5 -4 -10 -10 -10 -5 0 -10 5 -10 10 0 6 5 10 10 10
6 0 10 -4 10 -10z"/>
</g>
</svg>
