<?xml version="1.0" encoding="UTF-8" standalone="no"?>
<svg
   xmlns:dc="http://purl.org/dc/elements/1.1/"
   xmlns:cc="http://creativecommons.org/ns#"
   xmlns:rdf="http://www.w3.org/1999/02/22-rdf-syntax-ns#"
   xmlns:svg="http://www.w3.org/2000/svg"
   xmlns="http://www.w3.org/2000/svg"
   viewBox="0 0 1043.1973 349.86533"
   height="349.86533"
   width="1043.1973"
   xml:space="preserve"
   id="svg2"
   version="1.1"><metadata
     id="metadata8"><rdf:RDF><cc:Work
         rdf:about=""><dc:format>image/svg+xml</dc:format><dc:type
           rdf:resource="http://purl.org/dc/dcmitype/StillImage" /></cc:Work></rdf:RDF></metadata><defs
     id="defs6"><clipPath
       id="clipPath30"
       clipPathUnits="userSpaceOnUse"><path
         id="path28"
         d="M 0,262.399 H 782.398 V 0 H 0 Z" /></clipPath></defs><g
     transform="matrix(1.3333333,0,0,-1.3333333,0,349.86533)"
     id="g10"><text
       id="text14"
       style="font-variant:normal;font-weight:normal;font-stretch:normal;font-size:28px;font-family:Roboto;-inkscape-font-specification:Roboto-Regular;writing-mode:lr-tb;fill:#2c2c2c;fill-opacity:1;fill-rule:nonzero;stroke:none"
       transform="matrix(1,0,0,-1,266.5654,50.1523)"><tspan
         id="tspan12"
         y="0"
         x="0 18.939199 40.709202 61.373199 81.141197 90.605202 113.0892 131.5132 151.5892 170.26801 179.73199 200.62 210.756 232.34399 242.48 260.6268 281.4028 298.98679 308.45081 335.80679 357.57681 377.34479 394.9288">YOUR NEXT DIGITAL WORLD</tspan></text>
<text
       id="text18"
       style="font-variant:normal;font-weight:900;font-stretch:normal;font-size:120px;font-family:'Roboto Black';-inkscape-font-specification:Roboto-Black;writing-mode:lr-tb;fill:#2c2c2c;fill-opacity:1;fill-rule:nonzero;stroke:none"
       transform="matrix(1,0,0,-1,247.0699,111.5713)"><tspan
         id="tspan16"
         y="0"
         x="0 82.800003 161.52">QCS</tspan></text>
<text
       id="text22"
       style="font-variant:normal;font-weight:300;font-stretch:normal;font-size:120px;font-family:'Roboto Light';-inkscape-font-specification:Roboto-Light;writing-mode:lr-tb;fill:#2c2c2c;fill-opacity:1;fill-rule:nonzero;stroke:none"
       transform="matrix(1,0,0,-1,483.8299,111.5713)"><tspan
         id="tspan20"
         y="0"
         x="0 76.800003 146.28">NET</tspan></text>
<g
       id="g24"><g
         clip-path="url(#clipPath30)"
         id="g26"><g
           transform="translate(159.3181,151.0481)"
           id="g32"><path
             id="path34"
             style="fill:#2c2c2c;fill-opacity:1;fill-rule:nonzero;stroke:none"
             d="M 0,0 33.749,-0.005 C 34,-0.023 40.009,-0.31 42.367,7.037 l 3.004,21.481 2.244,1.964 v 12.653 c -0.351,0.249 -1.142,0.636 -2.619,0.57 l -1.494,-0.065 -0.254,1.421 c -0.071,0.211 -1.061,2.753 -7.428,2.753 H -2.202 c -5.095,0 -6.736,-1.626 -7.206,-2.326 l -0.509,-0.757 h -16.426 l -0.509,0.757 c -0.469,0.7 -2.111,2.326 -7.206,2.326 H -72.08 c -6.528,0 -7.413,-2.674 -7.418,-2.701 l -0.264,-1.473 -1.494,0.065 c -1.462,0.069 -2.25,-0.312 -2.619,-0.581 V 30.482 l 2.244,-1.964 3.004,-21.481 c 2.359,-7.348 8.375,-7.061 8.63,-7.041 L -69.878,0 -36.129,-0.005 c 0.253,-0.018 6.26,-0.305 8.618,7.042 l 2.099,14.999 c -0.004,0.069 -0.006,0.126 -0.006,0.183 0,4.019 3.27,7.288 7.288,7.288 4.019,0 7.288,-3.269 7.288,-7.288 0,-0.062 -0.002,-0.123 -0.006,-0.184 L -8.749,7.037 c 2.36,-7.348 8.373,-7.061 8.63,-7.041 z" /></g><g
           transform="translate(122.1359,159.1424)"
           id="g36"><path
             id="path38"
             style="fill:#7c2e94;fill-opacity:1;fill-rule:nonzero;stroke:none"
             d="m 0,0 h -31.06 c -1.149,0 -2.081,0.932 -2.081,2.081 l -3.67,27.579 c 0,1.149 0.932,2.081 2.081,2.081 h 38.4 c 1.149,0 2.081,-0.932 2.081,-2.081 L 2.081,2.081 C 2.081,0.932 1.149,0 0,0" /></g><g
           transform="translate(191.5243,159.1424)"
           id="g40"><path
             id="path42"
             style="fill:#76bc21;fill-opacity:1;fill-rule:nonzero;stroke:none"
             d="m 0,0 h -31.06 c -1.149,0 -2.081,0.932 -2.081,2.081 l -3.67,27.579 c 0,1.149 0.932,2.081 2.081,2.081 h 38.4 c 1.149,0 2.081,-0.932 2.081,-2.081 L 2.081,2.081 C 2.081,0.932 1.149,0 0,0" /></g><path
           id="path44"
           style="fill:#2c2c2c;fill-opacity:1;fill-rule:nonzero;stroke:none"
           d="m 144.425,115.499 h 9.053 v 8.422 h -9.053 z m -15.5,0.106 h 9.119 v 8.291 h -9.119 z m 30.647,8.467 c 0,-3.79 -0.081,-7.181 0.025,-10.567 0.089,-2.827 -1.232,-4.012 -3.949,-4.008 -9.648,0.017 -19.296,0.019 -28.944,-0.001 -2.733,-0.005 -4.019,1.209 -3.932,4.022 0.106,3.384 0.025,6.774 0.025,10.554 -4.736,0 -9.099,0.045 -13.459,-0.016 -2.8,-0.039 -4.935,0.734 -4.937,3.961 -0.002,3.097 2.161,3.753 4.741,3.752 21.372,-0.001 42.744,-0.002 64.116,0.001 2.598,10e-4 4.73,-0.7 4.717,-3.781 -0.013,-3.232 -2.172,-3.974 -4.962,-3.933 -4.27,0.062 -8.541,0.016 -13.441,0.016" /></g></g></g></svg>